<svg height="512pt" viewBox="0 0 512 512" width="512pt" xmlns="http://www.w3.org/2000/svg"><path d="m512 256c0 141.386719-114.613281 256-256 256s-256-114.613281-256-256 114.613281-256 256-256 256 114.613281 256 256zm0 0" fill="#ffd400"/><path d="m508.839844 296.261719-213.261719-213.261719-165.296875 328.667969 98.945312 98.941406c8.800782.914063 17.730469 1.390625 26.773438 1.390625 127.683594 0 233.523438-93.484375 252.839844-215.738281zm0 0" fill="#fdba12"/><path d="m295.578125 110.308594v-27.308594h-143.910156v27.308594l-21.386719 48.691406v252.667969h186.6875v-252.667969l-21.382812-48.691406zm0 0" fill="#83fefe"/><path d="m295.578125 110.308594v-27.308594h-143.910156v27.308594l-21.386719 48.691406v252.667969h186.6875v-252.667969l-21.382812-48.691406zm0 0" fill="#59a3fc"/><path d="m295.585938 110.308594h-.007813v-27.308594h-79.507813v328.667969h100.898438v-252.667969zm0 0" fill="#3e8ddb"/><path d="m274.195312 159h-143.914062l21.386719-48.691406h143.910156zm0 0" fill="#fff"/><path d="m295.578125 110.308594h-79.507813v48.691406h58.125zm0 0" fill="#e0e0e0"/><path d="m295.585938 110.308594 21.382812 48.691406h-42.773438zm0 0" fill="#cedfe0"/><path d="m274.195312 159h42.773438v252.667969h-42.773438zm0 0" fill="#00abc0"/><path d="m351.667969 235c-39.765625 0-72 5.222656-72 11.667969l24.890625 167.742187c0 4.214844 21.089844 7.632813 47.109375 7.632813 26.015625 0 47.105469-3.417969 47.105469-7.632813l24.894531-167.742187c0-6.445313-32.238281-11.667969-72-11.667969zm0 0" fill="#dff6f9"/><path d="m351.667969 235c-.160157 0-.316407.003906-.476563.003906v187.035156c.160156 0 .316406.003907.476563.003907 26.015625 0 47.105469-3.417969 47.105469-7.632813l24.894531-167.742187c0-6.445313-32.238281-11.667969-72-11.667969zm0 0" fill="#bad6d8"/><path d="m423.667969 246.667969c0-6.445313-32.238281-11.667969-72-11.667969-39.765625 0-72 5.222656-72 11.667969 0 6.441406 32.234375 11.667969 72 11.667969 39.761719 0 72-5.226563 72-11.667969zm0 0" fill="#fff"/><path d="m351.667969 235c-.160157 0-.316407.003906-.476563.003906v23.328125c.160156 0 .316406.003907.476563.003907 39.761719 0 72-5.226563 72-11.667969 0-6.445313-32.238281-11.667969-72-11.667969zm0 0" fill="#e0e0e0"/></svg>